<?xml version="1.0" encoding="utf-8"?>
<!-- Generator: Adobe Illustrator 27.5.0, SVG Export Plug-In . SVG Version: 6.00 Build 0)  -->
<svg version="1.1" xmlns="http://www.w3.org/2000/svg" xmlns:xlink="http://www.w3.org/1999/xlink" x="0px" y="0px"
	 viewBox="0 0 500 500" style="enable-background:new 0 0 500 500;" xml:space="preserve">
<g id="BACKGROUND">
</g>
<g id="OBJECTS">
	<g>
		<g>
			<path style="opacity:0.3;fill:#FFAFA4;" d="M285.438,462.726H459.02c28.674-26.271,23.34-81.653,21.595-142.728
				c-2.543-88.987-119.193-66.928-119.193-66.928c-129.031,3.814-103.91,49.766-102.004,138.753
				C260.287,432.32,268.004,452.278,285.438,462.726z"/>
			<g>
				<g>
					<g>
						<g>
							<path style="fill:#FFAFA4;" d="M277.932,314.491c0.406,18.069,15.499,31.433,33.389,30.224
								c15.981-1.08,28.113-14.893,28.466-30.587c0.407-18.11-16.098-31.392-33.389-30.224
								C290.417,284.984,278.285,298.797,277.932,314.491c-0.005,0.224,1.346,0.039,1.356-0.363
								c0.409-18.203,16.085-32.226,34.454-29.315c14.422,2.286,24.373,15.539,24.691,29.678
								c0.411,18.286-16.778,32.116-34.454,29.315c-14.422-2.286-24.373-15.539-24.691-29.678
								C279.282,313.886,277.923,314.099,277.932,314.491z"/>
						</g>
					</g>
					<g>
						<circle style="fill:#FFAFA4;" cx="308.86" cy="314.309" r="27.25"/>
					</g>
				</g>
				<g>
					<g>
						<path style="fill:#FF8973;" d="M307.889,299.307l0.232,4.314c0.07,1.438,0.151,2.876,0.201,4.314
							c0.119,2.876,0.209,5.752,0.365,8.628l-0.926-0.891c0.478-0.049,0.956-0.087,1.435-0.116c0.479-0.031,0.957-0.072,1.437-0.08
							c0.958-0.036,1.919-0.013,2.88,0.011c0.961,0.031,1.923,0.086,2.885,0.164c0.482,0.052,0.963,0.085,1.446,0.159
							c0.483,0.068,0.964,0.121,1.448,0.217l0.007,0.188c-0.475,0.133-0.951,0.222-1.427,0.328c-0.476,0.11-0.953,0.181-1.429,0.269
							c-0.954,0.152-1.909,0.281-2.864,0.385c-0.956,0.097-1.912,0.194-2.87,0.232c-0.479,0.029-0.959,0.025-1.438,0.031
							c-0.48,0.008-0.96,0.007-1.44-0.005l-0.973-0.024l0.047-0.867c0.156-2.876,0.246-5.752,0.365-8.628
							c0.049-1.438,0.13-2.876,0.201-4.314l0.232-4.314H307.889z"/>
					</g>
					<g>
						<g>
							<g>
								<g>
									<path style="fill:#FF8973;" d="M306.932,290.136c0,1.683,0,3.366,0,5.049c0,0.402,1.449,0.142,1.449-0.388
										c0-1.683,0-3.366,0-5.049C308.381,289.346,306.932,289.606,306.932,290.136L306.932,290.136z"/>
								</g>
							</g>
							<g>
								<g>
									<path style="fill:#FF8973;" d="M290.892,298.435c1.19,1.19,2.38,2.38,3.57,3.57c0.336,0.336,1.702-0.198,1.35-0.55
										c-1.19-1.19-2.38-2.38-3.57-3.57C291.906,297.549,290.54,298.084,290.892,298.435L290.892,298.435z"/>
								</g>
							</g>
							<g>
								<g>
									<path style="fill:#FF8973;" d="M284.555,315.942c1.683,0,3.366,0,5.049,0c0.504,0,1.556-0.765,0.579-0.765
										c-1.683,0-3.366,0-5.049,0C284.629,315.177,283.577,315.942,284.555,315.942L284.555,315.942z"/>
								</g>
							</g>
						</g>
						<g>
							<g>
								<g>
									<path style="fill:#FF8973;" d="M291.67,331.261c1.188-1.192,2.376-2.384,3.564-3.576c0.585-0.587-0.841-0.501-1.149-0.192
										c-1.188,1.192-2.376,2.384-3.564,3.576C289.935,331.656,291.361,331.57,291.67,331.261L291.67,331.261z"/>
								</g>
							</g>
							<g>
								<g>
									<path style="fill:#FF8973;" d="M309.018,336.507c-0.003-1.683-0.006-3.366-0.009-5.049
										c-0.001-0.402-1.45-0.141-1.449,0.388c0.003,1.683,0.006,3.366,0.009,5.049
										C307.569,337.298,309.018,337.037,309.018,336.507L309.018,336.507z"/>
								</g>
							</g>
							<g>
								<g>
									<path style="fill:#FF8973;" d="M326.012,328.849c-1.192-1.188-2.384-2.376-3.576-3.564c-0.337-0.336-1.702,0.199-1.35,0.55
										c1.192,1.188,2.384,2.376,3.576,3.564C324.999,329.734,326.364,329.199,326.012,328.849L326.012,328.849z"/>
								</g>
							</g>
						</g>
						<g>
							<g>
								<g>
									<path style="fill:#FF8973;" d="M333.699,314.542c-1.683,0-3.366,0-5.049,0c-0.504,0-1.556,0.765-0.579,0.765
										c1.683,0,3.366,0,5.049,0C333.625,315.308,334.677,314.542,333.699,314.542L333.699,314.542z"/>
								</g>
							</g>
							<g>
								<g>
									<path style="fill:#FF8973;" d="M324.616,298.74c-1.19,1.19-2.38,2.38-3.57,3.57c-0.586,0.586,0.841,0.501,1.149,0.192
										c1.19-1.19,2.38-2.38,3.57-3.57C326.352,298.345,324.925,298.431,324.616,298.74L324.616,298.74z"/>
								</g>
							</g>
						</g>
					</g>
				</g>
			</g>
		</g>
		<g>
			<g>
				<g>
					<g>
						<g>
							<path style="fill:#FFAFA4;" d="M437.292,383.615c0,0,3.265-13.468-14.284-19.59c-17.549-6.122-16.325-3.265-11.019-41.221
								l-26.528-2.449c0,0-0.816,34.283-8.571,36.323c-7.754,2.041-28.841-7.346-39.86,15.101
								c-11.019,22.447-7.21,78.904-7.21,78.904l80.945,11.292C410.764,461.975,436.884,408.511,437.292,383.615z"/>
							<path style="fill:#EA8D83;" d="M379.002,355.805c-0.162-0.035-0.325-0.065-0.487-0.101
								c6.246-6.006,6.945-35.349,6.945-35.349l26.528,2.449c-1.589,11.371-2.812,19.078-3.274,24.461
								C403.468,350.603,392.54,356.226,379.002,355.805z"/>
							<path style="fill:#EA8D83;" d="M336.616,387.402c8.24,9.902,16.821,19.568,25.478,29.107
								c14.069,15.501,28.773,30.405,43.956,44.809l-76.231-10.634c0,0-2.802-41.544,3.357-67.527
								C334.308,384.583,335.451,386.002,336.616,387.402z"/>
						</g>
						<g>
							<path style="fill:#FFFFFF;" d="M413.077,462.655c0,0,25.848-56.321,26.392-75.095c0.544-18.774-23.383-27.706-23.383-27.706
								s-3.367,16.813-27.967,12.712c-19.069-3.178-15.255-17.797-15.255-17.797s-22.094-2.58-33.522,10.48
								c-3.448,3.941-8.947,15.212-10.87,27.892c-0.383,2.522,10.957,3.913,10.957,3.913l-7.044,45.393l-6.375,20.479
								L413.077,462.655z"/>
							<path style="opacity:0.1;fill:#002838;" d="M364.413,432.742c19.614-6.372,35.799-17.59,49.967-32.465
								c7.737-8.123,14.801-16.806,21.683-25.638c2.132,3.446,3.556,7.711,3.405,12.921c-0.544,18.774-26.392,75.095-26.392,75.095
								l-87.067,0.272c0,0,0.219-9.726,0.954-23.086C339.686,438.737,352.301,436.676,364.413,432.742z"/>
						</g>
					</g>
					<g>
						<path style="fill:#FFAFA4;" d="M440.992,408.406c0,0,4.195,51.742-3.077,54.259c-7.272,2.517-69.642-6.433-69.642-6.433
							s-16.222,17.9-2.797-1.958c0,0-19.578,19.019-3.636-1.119c0,0-21.536,12.866-2.517-2.797c0,0-18.715,4.972,2.517-3.916
							c12.026-5.034,53.7-8.111,53.7-8.111l-3.636-29.647l28.808-10.069L440.992,408.406z"/>
						<path style="fill:#FFFFFF;" d="M415.541,438.333c12.306,1.398,28.486,6.305,28.486,6.305s8.494-81.02-24.571-83.778
							c0,0-15.937,20.299-12.1,35.712C410.051,407.394,410.926,437.808,415.541,438.333z"/>
					</g>
				</g>
				<g>
					<g>
						<g>
							<path style="fill:#FFAFA4;" d="M415.343,321.102c0,0,9.352-27.683-4.489-39.28c-13.842-11.597-35.29-18.455-43.146,13.343
								c-5.375,21.757-11.722,47.51,5.487,54.618S408.983,340.181,415.343,321.102z"/>
							<path style="fill:#FFAFA4;" d="M410.606,326.93c0,0,3.896-15.065,7.533-14.806c3.637,0.26,6.234,3.377,4.416,9.091
								C420.736,326.93,409.827,336.28,410.606,326.93z"/>
						</g>
						<g>
							<path style="fill:#01334C;" d="M432.278,288.428c-0.596-4.374-4.751-5.918-7.036-5.851
								c6.254-25.115-34.804-18.881-43.599-17.369c-8.952,1.539-7.134-7.973-7.134-7.973c-6.994,4.616-2.658,12.589-2.658,12.589
								c-4.196-2.378-3.637-8.113-3.637-8.113c-8.113,12.029,0.28,22.241,0.28,22.241l-2.658-2.098
								c3.345,14.853,39.328,8.842,42.443,8.292c-0.206,0.107-0.414,0.209-0.62,0.316c-5.531,14.512,4.192,18.17,4.192,18.17
								l-3.296,11.534c-3.153,9.682-8.19,21.771-13.433,20.637c-8.639-1.868,0.934-9.105-10.039-12.374
								c-7.611-2.267-20.079-4.669-20.312,8.172c-0.233,12.841-3.035-6.537-3.035-6.537s-3.269,17.977,3.969,21.479
								c7.238,3.502,33.62,7.705,39.924-7.938c2.465-6.117,4.001-12.194,5.392-17.389c0.466-1.056,1.325-3.199,2.576-7.109
								c1.995-6.235,4.24-6.235,4.24-6.235c1.247-0.25,2.743,1.247,2.743,1.247S433.774,299.402,432.278,288.428z"/>
							<path style="fill:#002838;" d="M432.278,288.428c-0.596-4.374-4.751-5.918-7.036-5.851
								c3.15-12.649-5.703-17.345-16.39-18.698c1.238,9.942,0.157,20.149-5.28,26.967c2.419-0.309,4.13-0.599,4.708-0.701
								c-0.206,0.107-0.414,0.209-0.62,0.316c-5.531,14.512,4.192,18.17,4.192,18.17l-3.296,11.534
								c-3.153,9.682-8.19,21.771-13.433,20.637c-0.182-0.039-0.345-0.085-0.512-0.129c-0.771,5.657-3.48,10.913-8.708,14.073
								c-0.007,0.004-0.013,0.007-0.02,0.011c8.334-0.444,16.577-3.29,19.746-11.154c2.465-6.117,4.001-12.194,5.392-17.389
								c0.466-1.056,1.325-3.199,2.576-7.109c1.995-6.235,4.24-6.235,4.24-6.235c1.247-0.25,2.743,1.247,2.743,1.247
								S433.774,299.402,432.278,288.428z"/>
						</g>
					</g>
					<g>
						<g>
							<path style="fill:#01334C;" d="M380.684,302.749c0,0-0.94-0.382-2.349-0.954c-0.321-0.127-0.653-0.262-1.001-0.38
								c-0.332-0.147-0.703-0.223-1.041-0.364c-0.364-0.069-0.699-0.228-1.056-0.28c-0.174-0.042-0.352-0.071-0.521-0.13
								l-0.526-0.073c-0.342-0.111-0.701-0.057-1.051-0.138c-0.354-0.023-0.714-0.007-1.078-0.051
								c-0.362,0.018-0.728,0.038-1.095,0.03c-0.366-0.001-0.717,0.069-1.065,0.078c-0.349,0.013-0.686,0.019-0.978,0.068
								c-0.296,0.036-0.577,0.045-0.809,0.061c-0.467,0.026-0.773,0.011-0.773,0.011s0.099-0.267,0.344-0.682
								c0.124-0.205,0.274-0.464,0.473-0.735c0.187-0.288,0.45-0.55,0.759-0.824c0.314-0.265,0.645-0.585,1.064-0.826
								c0.425-0.227,0.886-0.472,1.393-0.665c0.526-0.134,1.082-0.306,1.666-0.348c0.587-0.015,1.197-0.061,1.788,0.069l0.883,0.185
								c0.283,0.091,0.556,0.211,0.828,0.318c0.278,0.097,0.533,0.231,0.769,0.387c0.241,0.146,0.481,0.287,0.699,0.448
								c0.414,0.345,0.817,0.672,1.118,1.052c0.322,0.36,0.573,0.738,0.781,1.096c0.412,0.721,0.616,1.387,0.701,1.872
								C380.705,302.453,380.684,302.749,380.684,302.749z"/>
						</g>
						<g>
							<path style="fill:#01334C;" d="M386.625,301.41c0,0,0.601-1.214,2.106-2.421c0.746-0.607,1.715-1.205,2.881-1.645
								c0.583-0.217,1.213-0.402,1.886-0.5c0.667-0.123,1.379-0.132,2.094-0.094c0.716,0.075,1.442,0.206,2.122,0.472
								c0.685,0.245,1.315,0.609,1.858,1.024c0.543,0.418,0.999,0.891,1.356,1.374c0.368,0.479,0.62,0.978,0.837,1.431
								c0.173,0.477,0.344,0.894,0.411,1.293c0.082,0.392,0.138,0.731,0.148,1.02c0.035,0.571,0.006,0.898,0.006,0.898
								s-0.277-0.206-0.677-0.568c-0.188-0.188-0.466-0.38-0.729-0.615c-0.258-0.242-0.593-0.462-0.902-0.723
								c-0.665-0.481-1.41-0.948-2.197-1.273c-0.196-0.084-0.404-0.142-0.599-0.225c-0.213-0.043-0.41-0.122-0.624-0.166
								c-0.421-0.095-0.86-0.167-1.314-0.2c-1.817-0.155-3.944,0.191-5.65,0.462c-0.887,0.138-1.626,0.254-2.143,0.334
								C386.958,301.373,386.625,301.41,386.625,301.41z"/>
						</g>
						<g>
							<path style="fill:#FF8973;" d="M413.275,328.571c0.368-0.187,0.708-0.417,1.002-0.67c0.286-0.259,0.532-0.553,0.603-0.856
								c0.006-0.077,0.046-0.145,0.028-0.22c-0.011-0.074,0.01-0.14-0.017-0.212l-0.061-0.21l-0.117-0.208
								c-0.071-0.138-0.212-0.266-0.305-0.399l-0.388-0.377l-0.198-0.192l0.044-0.317c0.098-0.698,0.213-1.376,0.366-2.054
								c0.147-0.678,0.302-1.356,0.506-2.023c0.385-1.341,0.866-2.661,1.576-3.939c0.382-0.624,0.79-1.264,1.527-1.779
								c0.369-0.248,0.912-0.425,1.467-0.28c0.176,0.062,0.3,0.073,0.519,0.176c0.207,0.099,0.425,0.191,0.575,0.331
								c0.345,0.243,0.583,0.587,0.785,0.918c0.177,0.346,0.306,0.706,0.367,1.067c0.148,0.717,0.107,1.437-0.036,2.116
								c-0.099-0.685-0.273-1.348-0.539-1.935c-0.268-0.586-0.647-1.085-1.136-1.315c-0.12-0.076-0.23-0.093-0.334-0.136
								c-0.091-0.045-0.316-0.06-0.468-0.091c-0.123,0.001-0.283,0.057-0.461,0.21c-0.371,0.3-0.713,0.854-0.988,1.418
								c-0.296,0.563-0.549,1.17-0.779,1.79c-0.228,0.621-0.463,1.247-0.665,1.886c-0.414,1.274-0.806,2.576-1.181,3.865
								l-0.154-0.509l0.422,0.538c0.112,0.217,0.245,0.404,0.324,0.645l0.112,0.358c0.018,0.131,0.027,0.264,0.036,0.393
								c0.013,0.129-0.03,0.266-0.048,0.395c-0.014,0.133-0.094,0.245-0.143,0.363c-0.048,0.122-0.14,0.208-0.211,0.307
								c-0.07,0.102-0.168,0.168-0.252,0.249c-0.175,0.15-0.368,0.264-0.565,0.355C414.097,328.415,413.686,328.521,413.275,328.571
								z"/>
						</g>
						<g>
							<path style="fill:#FF8973;" d="M380.881,305.082c-0.964,1.687-1.849,3.386-2.698,5.099c-0.846,1.714-1.661,3.435-2.414,5.182
								c-0.367,0.877-0.766,1.74-1.106,2.628c-0.345,0.886-0.712,1.762-1.037,2.656c-0.348,0.885-0.634,1.792-0.973,2.683
								c-0.321,0.897-0.588,1.811-0.916,2.709l-0.571-0.858c2.862,0.517,5.716,1.096,8.547,1.848
								c-2.928-0.027-5.833-0.226-8.73-0.487l-0.751-0.068l0.18-0.79c0.432-1.898,0.928-3.79,1.596-5.623
								c0.317-0.923,0.655-1.839,1.046-2.733c0.182-0.453,0.384-0.897,0.587-1.34c0.208-0.441,0.389-0.895,0.619-1.326
								c0.445-0.869,0.892-1.735,1.379-2.581c0.499-0.838,0.999-1.675,1.551-2.479c0.546-0.807,1.119-1.597,1.732-2.354
								C379.528,306.486,380.177,305.754,380.881,305.082z"/>
						</g>
						<g>
							<path style="fill:#01334C;" d="M368.837,309.304c0,0-0.025-0.225-0.007-0.621c0.021-0.394,0.079-0.962,0.289-1.625
								c0.106-0.331,0.242-0.689,0.444-1.049c0.208-0.356,0.451-0.739,0.809-1.062c0.178-0.163,0.36-0.331,0.587-0.458
								c0.21-0.151,0.449-0.26,0.706-0.342c0.503-0.187,1.057-0.216,1.576-0.167l0.099,0.007l0.049,0.004l0.025,0.002l0.084,0.018
								l0.158,0.04l0.316,0.079c0.196,0.035,0.519,0.208,0.76,0.32c0.478,0.274,0.85,0.656,1.122,1.069
								c0.274,0.41,0.441,0.848,0.526,1.257c0.107,0.407,0.127,0.796,0.128,1.145c0.002,0.701-0.125,1.26-0.233,1.64
								c-0.112,0.381-0.211,0.585-0.211,0.585s-0.023-0.226-0.081-0.605c-0.057-0.379-0.148-0.914-0.312-1.51
								c-0.087-0.296-0.193-0.609-0.332-0.909c-0.129-0.308-0.325-0.584-0.526-0.835c-0.094-0.136-0.236-0.218-0.346-0.335
								c-0.137-0.078-0.274-0.178-0.404-0.244c-0.157-0.042-0.204-0.116-0.437-0.164l-0.318-0.073l-0.159-0.037l-0.01-0.002
								l-0.005-0.001c0.027,0.005-0.068-0.013,0.06,0.012l-0.016,0l-0.032-0.001l-0.064-0.003c-0.345-0.036-0.679-0.026-0.989,0.064
								c-0.313,0.075-0.613,0.222-0.882,0.424c-0.548,0.396-0.987,0.966-1.331,1.484c-0.337,0.525-0.594,1.004-0.77,1.345
								C368.934,309.099,368.837,309.304,368.837,309.304z"/>
						</g>
						<g>
							<path style="fill:#01334C;" d="M388.98,311.402c0,0-0.025-0.225-0.008-0.621c0.021-0.394,0.079-0.962,0.289-1.625
								c0.106-0.331,0.242-0.689,0.444-1.049c0.208-0.356,0.451-0.739,0.809-1.062c0.178-0.163,0.36-0.331,0.587-0.458
								c0.21-0.151,0.449-0.26,0.706-0.342c0.503-0.187,1.057-0.216,1.576-0.167l0.099,0.007l0.049,0.004l0.025,0.002l0.084,0.018
								l0.158,0.04l0.316,0.079c0.196,0.035,0.519,0.208,0.76,0.32c0.478,0.274,0.85,0.656,1.122,1.069
								c0.274,0.41,0.441,0.848,0.526,1.257c0.107,0.407,0.127,0.796,0.128,1.145c0.002,0.701-0.125,1.26-0.233,1.64
								c-0.112,0.381-0.211,0.585-0.211,0.585s-0.023-0.226-0.081-0.605c-0.057-0.379-0.148-0.914-0.312-1.51
								c-0.087-0.296-0.193-0.609-0.332-0.909c-0.129-0.308-0.325-0.584-0.526-0.835c-0.094-0.136-0.236-0.218-0.346-0.335
								c-0.137-0.078-0.274-0.177-0.404-0.244c-0.157-0.042-0.204-0.116-0.437-0.164l-0.318-0.073l-0.159-0.037l-0.01-0.002
								l-0.005-0.001c0.027,0.005-0.068-0.014,0.06,0.012l-0.016,0l-0.032-0.001l-0.064-0.002c-0.345-0.037-0.679-0.026-0.989,0.064
								c-0.313,0.075-0.613,0.222-0.882,0.424c-0.548,0.396-0.987,0.966-1.331,1.484c-0.337,0.525-0.594,1.004-0.77,1.345
								C389.076,311.197,388.98,311.402,388.98,311.402z"/>
						</g>
						<path style="fill:#FFFFFF;" d="M368.769,333.985l18.993-0.712C387.762,333.273,380.64,340.87,368.769,333.985z"/>
					</g>
				</g>
			</g>
			<g>
				<path style="fill:#002838;" d="M309.887,460.583c0,1.294,1.049,2.344,2.344,2.344H401.3c1.295,0,2.344-1.049,2.344-2.344l0,0
					c0-1.295-1.049-2.344-2.344-2.344h-89.069C310.936,458.24,309.887,459.289,309.887,460.583L309.887,460.583z"/>
				<path style="fill:#01334C;" d="M269.519,459.021c0,2.158,1.749,3.907,3.906,3.907h77.349c2.158,0,3.907-1.749,3.907-3.907
					v-52.348c0-2.158-1.749-3.907-3.907-3.907h-77.349c-2.158,0-3.906,1.749-3.906,3.907V459.021z"/>
				<path style="fill:#002838;" d="M348.98,459.021v-52.348c0-2.158-1.749-3.907-3.907-3.907h5.702c2.158,0,3.907,1.749,3.907,3.907
					v52.348c0,2.158-1.749,3.906-3.907,3.906h-5.702C347.231,462.927,348.98,461.178,348.98,459.021z"/>
			</g>
		</g>
	</g>
	<g>
		<path style="opacity:0.2;fill:#00D7CF;" d="M90.347,264.082C4.087,266.589,25.47,381.598,25.47,381.598
			c1.148,39.521,6.242,64.367,15.301,79.795h184.595c15.678-19.849,14.034-55.35,18.4-112.709
			C251.16,251.548,176.607,261.575,90.347,264.082z"/>
		<g>
			<g>
				<g>
					<g>
						<path style="fill:#EA8D83;" d="M87.284,327.506c0,0,8.7,32.776-2.832,42.488c-11.533,9.711-24.481-5.463-28.73,19.423
							c-4.249,24.886,75.062,14.365,88.416-4.047c13.353-18.411-10.926-20.03-20.839-18.209c-9.914,1.821-9.509-8.7-10.521-23.47
							C111.765,328.922,87.284,327.506,87.284,327.506z"/>
						<path style="opacity:0.5;fill:#D36A62;" d="M89.942,358.136c8.219,3.597,17.02,5.798,25.861,6.157
							c-2.314-3.972-2.401-11.473-3.026-20.601c-1.012-14.77-25.493-16.186-25.493-16.186S91.908,344.931,89.942,358.136z"/>
					</g>
					<g>
						<g>
							<path style="fill:#EA8D83;" d="M199.142,310.788c-4.371-30.2-4.376-2.902-4.376-2.902c-3.788-33.121-3.964-0.352-3.964-0.352
								c-5.197-37.35-3.964,0.969-3.964,0.969c-7.928-30.303-3.193,1.491-3.193,1.491l0.397,4.768
								c-18.676-21.06,0.397,6.755,0.397,6.755s0.191,0.52,0.538,1.45c0.914,16.881,2.034,39.368,2.034,39.368l-3.734,0.241
								c-10.337,0.039-29.03,0.6-43.008,3.759c1.404,9.112,2.565,18.302,2.347,27.412c6.518-0.17,14.741-1.111,24.974-2.829
								c25.769-4.327,41.522-4.987,44.533-12.111C215.99,376.612,203.227,339.015,199.142,310.788z"/>
							<path style="opacity:0.5;fill:#D36A62;" d="M160.669,363.469c-6.965,0.558-14.153,1.452-20.401,2.864
								c1.405,9.113,2.566,18.305,2.348,27.416c4.298-0.113,9.34-0.561,15.213-1.348
								C161.143,383.288,161.811,373.111,160.669,363.469z"/>
						</g>
						<g>
							<path style="fill:#FFDD88;" d="M79.138,371.982c0,0,13.658,21.806,39.736,18.676c19.868-2.384,12.716-24.637,12.716-24.637
								s11.524-2.384,12.716-1.192c5.96,5.961,21.06,44.902,11.921,58.81c-9.139,13.908-11.126,39.736-11.126,39.736l-50.465-4.371
								c0,0-40.169-42.905-40.531-67.155C53.706,365.227,79.138,371.982,79.138,371.982z"/>
							<path style="fill:#F9CB64;" d="M117.91,418.929c-14.146-1.191-30.932-1.702-43.172-9.736
								c-6.179-4.056-10.501-9.461-14.451-15.615c-1.809-2.818-3.61-5.724-5.649-8.408c-0.38,1.952-0.573,4.167-0.535,6.68
								c0.362,24.249,40.531,67.155,40.531,67.155l50.465,4.371c0,0,1.987-25.829,11.126-39.736
								c1.458-2.219,2.356-4.907,2.817-7.876C145.68,419.968,129.919,419.94,117.91,418.929z"/>
						</g>
						<path style="fill:#EA8D83;" d="M125.14,452.476c0,0,16.82,4.469-2.262-3.519c-10.809-4.525-48.262-7.29-48.262-7.29
							l0.455-3.714c3.135-16.965,9.174-57.088-2.688-62.395c-15.1-6.755-21.458,2.384-22.252,41.723
							c-0.701,34.71-4.491,50.854,13.186,46.532c17.619-0.87,53.78-6.058,53.78-6.058s14.579,16.087,2.514-1.76
							c0,0,17.596,17.093,3.268-1.005C122.877,454.99,142.233,466.552,125.14,452.476z"/>
					</g>
				</g>
				<g>
					<g>
						<path style="fill:#EA8D83;" d="M85.058,322.246c0,0-5.058-24.077,13.151-31.765c18.209-7.688,36.014,3.439,40.263,25.897
							c4.249,22.458-4.433,44.533-20.03,43.095C89.914,356.843,85.058,322.246,85.058,322.246z"/>
						<g>
							<path style="fill:#01334C;" d="M152.23,291.492c4.046-6.879,7.688-3.844,7.688-3.844s-1.619-4.451-8.902-1.416
								c-1.857,0.774-3.687,1.228-5.428,1.387c6.408-2.45,12.788-7.574,11.296-14.538c0,0-2.226,6.879-6.07,6.677
								c-3.844-0.202-14.972-15.377-23.672-7.486c-8.7,7.891-14.567-8.295-30.349,3.237c-3.433,2.508-5.793,5.14-7.305,7.698
								c0.039-0.09,0.072-0.177,0.114-0.268c0.62-1.229,1.41-2.562,2.48-3.87c0.242-0.343,0.554-0.648,0.845-0.975
								c0.303-0.319,0.582-0.666,0.916-0.977c0.68-0.607,1.313-1.316,2.079-1.891c0.37-0.302,0.744-0.609,1.123-0.919
								c0.388-0.306,0.835-0.597,1.257-0.902c0.416-0.294,0.837-0.592,1.262-0.892c0.437-0.268,0.863-0.569,1.317-0.818
								c0.895-0.527,1.837-0.978,2.806-1.357c0.976-0.35,1.976-0.621,2.993-0.758c2.045-0.285,4.106,0.119,6.25,0.841
								c1.086,0.335,2.201,0.735,3.432,1.019c1.222,0.28,2.588,0.433,3.928,0.182c1.354-0.235,2.533-0.787,3.61-1.541
								c0.284-0.183,0.459-0.347,0.693-0.52l0.359-0.274l0.308-0.225c0.418-0.286,0.8-0.632,1.237-0.871
								c1.696-1.06,3.585-1.637,5.433-1.78c1.849-0.138,3.642,0.106,5.249,0.548c1.616,0.434,3.016,1.128,4.226,1.788
								c0.594,0.353,1.149,0.691,1.631,1.051c0.505,0.333,0.928,0.689,1.31,1.015c0.399,0.312,0.698,0.637,0.985,0.905
								c0.29,0.263,0.518,0.513,0.689,0.727c0.355,0.415,0.545,0.637,0.545,0.637s-0.15-0.25-0.43-0.719
								c-0.133-0.24-0.314-0.522-0.561-0.839c-0.238-0.322-0.505-0.71-0.864-1.079c-0.343-0.387-0.728-0.815-1.197-1.23
								c-0.443-0.449-0.984-0.855-1.561-1.3c-1.18-0.84-2.58-1.755-4.297-2.374c-1.697-0.643-3.671-1.113-5.817-1.074
								c-2.132,0.024-4.45,0.542-6.496,1.737c-0.528,0.267-0.991,0.64-1.495,0.963l-0.372,0.253l-0.314,0.218
								c-0.22,0.15-0.47,0.353-0.666,0.46c-0.782,0.493-1.719,0.892-2.624,1.035c-1.843,0.336-3.892-0.455-6.146-1.202
								c-2.247-0.74-4.876-1.247-7.387-0.854c-2.52,0.341-4.739,1.442-6.657,2.651c-0.49,0.296-0.936,0.636-1.398,0.948
								c-0.503,0.369-0.859,0.671-1.283,1.011c-0.407,0.337-0.814,0.64-1.208,0.994c-0.392,0.365-0.779,0.725-1.161,1.08
								c-0.787,0.688-1.419,1.466-2.08,2.175c-0.322,0.361-0.592,0.762-0.881,1.129c-0.278,0.377-0.574,0.727-0.803,1.12
								c-1.023,1.487-1.703,3.015-2.197,4.385c-0.418,1.26-0.61,2.407-0.695,3.383c-0.487-0.643-1.019-1.252-1.61-1.805
								c-0.485-0.453-1.004-0.867-1.55-1.244l-0.843-0.525l-0.882-0.452c-0.602-0.266-1.209-0.526-1.841-0.702
								c-0.62-0.215-1.267-0.323-1.904-0.449c-0.645-0.076-1.286-0.179-1.932-0.185c-0.644-0.045-1.287-0.023-1.927,0.008
								c-0.641,0.022-1.273,0.133-1.906,0.195c-0.628,0.106-1.253,0.222-1.875,0.343c-0.615,0.155-1.232,0.297-1.841,0.463
								l-1.801,0.586l1.854-0.355l1.858-0.284l1.864-0.164c0.622-0.002,1.243-0.053,1.86-0.016c0.618,0.026,1.234,0.036,1.842,0.124
								c0.613,0.046,1.21,0.186,1.808,0.296c0.585,0.164,1.18,0.292,1.741,0.518c0.574,0.188,1.115,0.455,1.65,0.721l0.778,0.447
								l0.735,0.509c0.471,0.365,0.932,0.741,1.353,1.163c0.096,0.095,0.184,0.197,0.277,0.295c-0.412-0.202-0.834-0.38-1.267-0.512
								c-0.34-0.082-0.678-0.189-1.02-0.246l-1.027-0.135c-0.684-0.018-1.361-0.061-2.043,0.013
								c-0.695,0.033-1.336,0.131-1.972,0.235c-0.677,0.088-1.305,0.265-1.956,0.404c-0.636,0.188-1.279,0.351-1.9,0.586
								l-0.931,0.346l-0.907,0.409c-0.592,0.297-1.18,0.604-1.731,0.972c-0.281,0.174-0.556,0.357-0.817,0.56
								c-0.269,0.191-0.529,0.394-0.777,0.612c-1.003,0.847-1.911,1.84-2.485,3.013c0.352-0.546,0.79-1.025,1.258-1.465
								c0.469-0.438,0.956-0.855,1.486-1.213c0.258-0.188,0.527-0.36,0.803-0.52c0.269-0.171,0.549-0.323,0.835-0.464
								c0.559-0.303,1.151-0.544,1.741-0.774l0.892-0.33l0.913-0.271c0.606-0.185,1.234-0.299,1.851-0.438
								c0.626-0.084,1.257-0.238,1.871-0.283l0.967-0.101c0.321-0.03,0.62-0.02,0.93-0.033c0.612-0.039,1.232,0.034,1.841,0.076
								l0.42,0.068c-4.065-0.153-8.09,1.393-10.953,5.95c-9.914,15.781,2.226,25.695,7.284,31.765c0,0,3.642-5.665,7.081,0.809
								s0,9.307,8.7,10.521c0,0-4.653-0.607-3.439-6.677c1.214-6.07,0-10.521-2.428-12.949c0,0,3.819-7.357,3.187-14.292
								c0.036,0.079,0.067,0.154,0.105,0.235c0.42,0.904,0.971,1.901,1.736,2.89c0.748,0.998,1.737,1.981,2.998,2.756
								c0.639,0.369,1.332,0.702,2.086,0.926c0.755,0.204,1.554,0.355,2.367,0.354c0.814,0.027,1.634-0.068,2.444-0.227
								c0.823-0.172,1.558-0.412,2.31-0.594c1.5-0.383,3.052-0.689,4.586-0.813c1.531-0.132,3.06-0.058,4.434,0.412
								c1.38,0.45,2.604,1.277,3.723,2.229c0.561,0.474,1.102,0.97,1.644,1.452c0.507,0.467,1.121,1.022,1.84,1.36
								c1.402,0.693,2.886,0.685,4.118,0.496c1.251-0.189,2.322-0.593,3.236-0.989c0.915-0.4,1.668-0.829,2.275-1.197
								c1.209-0.747,1.827-1.27,1.827-1.27s-0.695,0.417-1.972,0.997c-0.637,0.292-1.426,0.61-2.342,0.914
								c-0.918,0.294-1.976,0.564-3.127,0.655c-1.143,0.088-2.402-0.04-3.473-0.642c-0.525-0.284-0.964-0.712-1.492-1.258
								c-0.511-0.519-1.046-1.045-1.622-1.564c-1.139-1.031-2.499-2.07-4.138-2.632c-1.067-0.377-2.187-0.533-3.302-0.571
								c7.641-1.384,6.368,1.835,11.15,4.909c5.109,3.284,11.128-6.879,16.995-1.012c5.867,5.868,10.925,3.44,14.365-1.821
								c0,0-6.07,4.047-9.105-0.202s-2.428-7.688-8.7-7.081c0,0,6.879-1.821,10.723,1.821c3.844,3.642,5.463,4.046,8.295-0.607
								c0,0-3.237,3.035-6.272-0.607c-1.5-1.8-2.309-3.896-3.769-5.434C148.383,294.899,150.726,294.049,152.23,291.492z
								 M91.818,299.263c0.026,0.072,0.055,0.148,0.083,0.223c-0.021-0.042-0.044-0.086-0.065-0.128
								C91.83,299.326,91.825,299.294,91.818,299.263z"/>
							<path style="fill:#002838;" d="M130.67,310.585c-0.362,0.14-0.749,0.282-1.166,0.42c-0.918,0.294-1.976,0.564-3.127,0.655
								c-1.143,0.088-2.402-0.04-3.473-0.642c-0.525-0.284-0.964-0.712-1.492-1.258c-0.511-0.519-1.046-1.045-1.622-1.564
								c-1.139-1.031-2.499-2.07-4.138-2.632c-1.067-0.377-2.187-0.533-3.302-0.571c7.641-1.384,6.368,1.835,11.15,4.909
								c1.494,0.961,3.067,0.768,4.691,0.165c-2.342-0.588-4.584-1.473-6.625-2.846c-2.325-1.565-4.445-4.268-4.512-7.167
								c-0.063-2.737,0.513-5.648-3.093-6.371c-1.299-0.26-2.42-0.609-3.465-1.456c-6.397-5.183-7.597-12.502-7.219-20.208
								c-1.967,0.657-4.111,1.755-6.483,3.488c-3.433,2.508-5.793,5.14-7.305,7.698c0.039-0.09,0.072-0.177,0.114-0.268
								c0.62-1.229,1.41-2.562,2.48-3.87c0.242-0.343,0.554-0.648,0.845-0.975c0.303-0.319,0.582-0.666,0.916-0.977
								c0.68-0.607,1.313-1.316,2.079-1.891c0.37-0.302,0.744-0.609,1.123-0.919c0.388-0.306,0.835-0.597,1.257-0.902
								c0.416-0.294,0.837-0.592,1.262-0.892c0.437-0.268,0.863-0.569,1.317-0.818c0.797-0.469,1.634-0.868,2.49-1.22
								c0.067-0.906,0.151-1.816,0.249-2.727c-1.43,0.512-2.743,1.223-3.939,1.977c-0.49,0.296-0.936,0.636-1.398,0.948
								c-0.503,0.369-0.859,0.671-1.283,1.011c-0.407,0.337-0.814,0.64-1.208,0.994c-0.392,0.365-0.779,0.725-1.161,1.08
								c-0.787,0.688-1.419,1.466-2.08,2.175c-0.322,0.361-0.592,0.762-0.881,1.129c-0.278,0.377-0.574,0.727-0.803,1.12
								c-1.023,1.487-1.703,3.015-2.197,4.385c-0.418,1.26-0.61,2.407-0.695,3.383c-0.487-0.643-1.019-1.252-1.61-1.805
								c-0.485-0.453-1.004-0.867-1.55-1.244l-0.843-0.525l-0.882-0.452c-0.602-0.266-1.209-0.526-1.841-0.702
								c-0.62-0.215-1.267-0.323-1.904-0.449c-0.645-0.076-1.286-0.179-1.932-0.185c-0.644-0.045-1.287-0.023-1.927,0.008
								c-0.641,0.022-1.273,0.133-1.906,0.195c-0.628,0.106-1.253,0.222-1.875,0.343c-0.615,0.155-1.232,0.297-1.841,0.463
								l-1.801,0.586l1.854-0.355l1.858-0.284l1.864-0.164c0.622-0.002,1.243-0.053,1.86-0.016c0.618,0.026,1.234,0.036,1.842,0.124
								c0.613,0.046,1.21,0.186,1.808,0.296c0.585,0.164,1.18,0.292,1.741,0.518c0.574,0.188,1.115,0.455,1.65,0.721l0.778,0.447
								l0.735,0.509c0.471,0.365,0.932,0.741,1.353,1.163c0.096,0.095,0.184,0.197,0.277,0.295c-0.412-0.202-0.834-0.38-1.267-0.512
								c-0.34-0.082-0.678-0.189-1.02-0.246l-1.027-0.135c-0.684-0.018-1.361-0.061-2.043,0.013
								c-0.695,0.033-1.336,0.131-1.972,0.235c-0.677,0.088-1.305,0.265-1.956,0.404c-0.636,0.188-1.279,0.351-1.9,0.586
								l-0.931,0.346l-0.907,0.409c-0.592,0.297-1.18,0.604-1.731,0.972c-0.281,0.174-0.556,0.357-0.817,0.56
								c-0.269,0.191-0.529,0.394-0.777,0.612c-1.003,0.847-1.911,1.84-2.485,3.013c0.352-0.546,0.79-1.025,1.258-1.465
								c0.469-0.438,0.956-0.855,1.486-1.213c0.258-0.188,0.527-0.36,0.803-0.52c0.269-0.171,0.549-0.323,0.835-0.464
								c0.559-0.303,1.151-0.544,1.741-0.774l0.892-0.33l0.913-0.271c0.606-0.185,1.234-0.299,1.851-0.438
								c0.626-0.084,1.257-0.238,1.871-0.283l0.967-0.101c0.321-0.03,0.62-0.02,0.93-0.033c0.612-0.039,1.232,0.034,1.841,0.076
								l0.42,0.068c-4.065-0.153-8.09,1.393-10.953,5.95c-9.914,15.781,2.226,25.695,7.284,31.765c0,0,3.642-5.665,7.081,0.809
								s0,9.307,8.7,10.521c0,0-4.653-0.607-3.439-6.677c1.214-6.07,0-10.521-2.428-12.949c0,0,3.819-7.357,3.187-14.292
								c0.036,0.079,0.067,0.154,0.105,0.235c0.42,0.904,0.971,1.901,1.736,2.89c0.748,0.998,1.737,1.981,2.998,2.756
								c0.639,0.369,1.332,0.702,2.086,0.926c0.755,0.204,1.554,0.355,2.367,0.354c0.814,0.027,1.634-0.068,2.444-0.227
								c0.823-0.172,1.558-0.412,2.31-0.594c1.5-0.383,3.052-0.689,4.586-0.813c1.531-0.132,3.06-0.058,4.434,0.412
								c1.38,0.45,2.604,1.277,3.723,2.229c0.561,0.474,1.102,0.97,1.644,1.452c0.507,0.467,1.121,1.022,1.84,1.36
								c1.402,0.693,2.886,0.685,4.118,0.496c1.251-0.189,2.322-0.593,3.236-0.989c0.65-0.284,1.214-0.582,1.706-0.863
								C131.172,310.662,130.92,310.627,130.67,310.585z"/>
							<path style="fill:#002838;" d="M91.818,299.263c0.026,0.072,0.055,0.148,0.083,0.223c-0.021-0.042-0.044-0.086-0.065-0.128
								C91.83,299.326,91.825,299.294,91.818,299.263z"/>
						</g>
					</g>
					<g>
						<g>
							<g>
								<path style="fill:#D36A62;" d="M119.454,315.366c1.06,3.098,2.004,6.188,3.089,9.203c0.286,0.747,0.544,1.503,0.85,2.235
									c0.304,0.732,0.62,1.457,0.961,2.158c0.342,0.7,0.731,1.37,1.159,1.977c0.213,0.303,0.441,0.595,0.691,0.831
									c0.243,0.26,0.517,0.428,0.784,0.581l1.17,0.67l-1.104,0.531c-2.287,1.101-4.591,2.171-6.996,3.057
									c2.047-1.542,4.194-2.9,6.358-4.227l0.067,1.201c-0.463-0.195-0.891-0.454-1.23-0.764c-0.359-0.299-0.657-0.634-0.933-0.976
									c-0.282-0.34-0.52-0.703-0.741-1.068c-0.229-0.363-0.427-0.736-0.625-1.11c-0.398-0.745-0.714-1.517-1.012-2.291
									c-0.296-0.775-0.573-1.553-0.8-2.346c-0.473-1.578-0.845-3.176-1.131-4.788C119.727,318.632,119.52,317.007,119.454,315.366
									z"/>
							</g>
							<g>
								<path style="fill:#D36A62;" d="M127.067,341.229c0,0-0.166,0.243-0.523,0.612c-0.356,0.367-0.897,0.874-1.636,1.362
									c-0.362,0.259-0.778,0.5-1.232,0.736c-0.454,0.231-0.948,0.459-1.476,0.645c-0.535,0.163-1.081,0.38-1.669,0.464
									c-0.579,0.132-1.177,0.195-1.78,0.239c-0.601,0.067-1.205-0.02-1.796-0.03c-0.592-0.026-1.159-0.193-1.712-0.28
									c-0.549-0.114-1.054-0.327-1.537-0.484c-0.492-0.136-0.903-0.412-1.301-0.6c-0.392-0.205-0.755-0.376-1.039-0.603
									c-0.294-0.204-0.541-0.396-0.744-0.55c-0.404-0.312-0.622-0.5-0.622-0.5s0.288,0.074,0.771,0.221
									c0.24,0.076,0.532,0.163,0.855,0.279c0.318,0.129,0.71,0.187,1.111,0.303c0.412,0.085,0.831,0.253,1.304,0.312
									c0.469,0.069,0.953,0.18,1.457,0.246c0.509,0.038,1.029,0.104,1.559,0.125c0.53-0.012,1.07,0.053,1.605-0.024
									c0.538-0.022,1.075-0.059,1.598-0.162c0.527-0.067,1.039-0.184,1.538-0.292c0.49-0.134,0.974-0.254,1.424-0.398
									c0.445-0.158,0.878-0.288,1.263-0.448c0.781-0.299,1.424-0.596,1.876-0.813
									C126.812,341.373,127.067,341.229,127.067,341.229z"/>
							</g>
						</g>
						<g>
							<g>
								<g>
									<ellipse style="fill:#FFFFFF;" cx="107.82" cy="322.853" rx="10.622" ry="11.431"/>
									<g>
										<path style="fill:#00D7CF;" d="M96.622,323.007c0.762,15.228,21.647,14.664,22.393-0.235
											c0.342-6.835-5.624-11.958-12.121-11.581c-6.096,0.353-9.988,6.107-10.27,11.743c-0.021,0.428,1.13,0.181,1.147-0.162
											c0.334-6.677,5.428-12.729,12.943-10.506c4.182,1.237,6.482,5.487,7.089,9.495c1.085,7.167-5.606,13.829-12.879,11.678
											c-4.645-1.374-6.929-6.293-7.151-10.741C97.757,322.376,96.602,322.599,96.622,323.007z"/>
									</g>
								</g>
								<path style="fill:none;stroke:#00D7CF;stroke-width:1.5895;stroke-miterlimit:10;" d="M118.442,322.853
									c0,0,1.821-5.058,4.451-0.607"/>
								
									<line style="fill:none;stroke:#00D7CF;stroke-width:1.5895;stroke-miterlimit:10;" x1="84.451" y1="324.066" x2="97.198" y2="324.876"/>
								
									<line style="fill:none;stroke:#00D7CF;stroke-width:1.5895;stroke-miterlimit:10;" x1="147.172" y1="319.008" x2="139.357" y2="320.099"/>
								<g>
									<ellipse style="fill:#FFFFFF;" cx="133.313" cy="320.425" rx="10.622" ry="11.431"/>
									<g>
										<path style="fill:#00D7CF;" d="M122.115,320.579c0.762,15.228,21.647,14.664,22.393-0.235
											c0.342-6.835-5.624-11.958-12.121-11.581c-6.095,0.353-9.987,6.107-10.27,11.743c-0.021,0.428,1.13,0.181,1.147-0.162
											c0.334-6.677,5.428-12.729,12.943-10.506c4.183,1.237,6.483,5.487,7.089,9.495c1.085,7.166-5.606,13.829-12.879,11.678
											c-4.645-1.374-6.929-6.293-7.152-10.741C123.25,319.948,122.095,320.171,122.115,320.579z"/>
									</g>
								</g>
							</g>
							<g>
								<path style="fill:#01334C;" d="M115.397,325.826c0.162,1.803-0.271,3.316-0.967,3.379c-0.697,0.063-1.393-1.348-1.556-3.151
									c-0.163-1.803,0.27-3.316,0.967-3.379C114.538,322.611,115.234,324.022,115.397,325.826z"/>
								<path style="fill:#01334C;" d="M135.889,323.75c0.163,1.803-0.27,3.316-0.967,3.379c-0.697,0.063-1.393-1.348-1.556-3.151
									c-0.163-1.803,0.27-3.316,0.967-3.379C135.03,320.536,135.727,321.947,135.889,323.75z"/>
							</g>
						</g>
						<g>
							<path style="fill:#EA8D83;" d="M86.977,324.673c0,0-6.612-9.257-8.74,0.809c-3.294,15.579,17.772,15.192,11.273,9.105
								C86.054,331.35,86.977,324.673,86.977,324.673z"/>
							<g>
								<path style="fill:#D36A62;" d="M79.393,328.315c0.1-0.641,0.272-1.274,0.522-1.888c0.254-0.611,0.565-1.221,1.099-1.745
									c0.274-0.251,0.605-0.508,1.039-0.607c0.218-0.047,0.44-0.094,0.663-0.051c0.23,0.015,0.448,0.06,0.633,0.156
									c0.432,0.16,0.67,0.374,1.027,0.674c0.221,0.244,0.437,0.426,0.666,0.755c0.241,0.302,0.423,0.604,0.597,0.904
									c0.174,0.304,0.304,0.625,0.442,0.941c0.249,0.64,0.455,1.289,0.595,1.948c0.129,0.66,0.225,1.322,0.28,1.985
									c0.061,0.669,0.053,1.315,0.019,2.012l-0.017,0.349l-0.256,0.182c-0.21,0.149-0.438,0.337-0.65,0.515
									c-0.216,0.178-0.424,0.365-0.614,0.559c-0.37,0.374-0.707,0.856-0.707,1.126c-0.017,0.125,0.079,0.263,0.277,0.407
									c0.193,0.141,0.459,0.245,0.731,0.324c0.55,0.165,1.148,0.264,1.749,0.357c-0.597,0.12-1.204,0.204-1.839,0.178
									c-0.317-0.018-0.643-0.055-0.984-0.189c-0.17-0.061-0.345-0.161-0.502-0.314c-0.16-0.146-0.289-0.365-0.343-0.593
									c-0.103-0.467,0.021-0.876,0.161-1.199c0.151-0.328,0.337-0.61,0.533-0.875c0.197-0.264,0.407-0.509,0.625-0.744
									c0.224-0.235,0.446-0.442,0.708-0.665l-0.274,0.531c-0.008-0.58-0.083-1.21-0.141-1.813
									c-0.066-0.608-0.171-1.209-0.302-1.799c-0.129-0.59-0.282-1.168-0.485-1.722c-0.216-0.531-0.461-1.106-0.744-1.533
									c-0.106-0.218-0.355-0.482-0.544-0.726c-0.134-0.1-0.342-0.369-0.519-0.434c-0.092-0.076-0.184-0.101-0.274-0.118
									c-0.092-0.048-0.186-0.026-0.284-0.025c-0.197,0.013-0.422,0.108-0.647,0.248c-0.445,0.303-0.853,0.778-1.219,1.276
									C80.048,327.207,79.706,327.749,79.393,328.315z"/>
							</g>
						</g>
					</g>
				</g>
			</g>
			<g>
				<path style="fill:#002838;" d="M185.312,462.733c0,1.294-1.049,2.344-2.344,2.344H93.899c-1.294,0-2.344-1.049-2.344-2.344l0,0
					c0-1.294,1.049-2.344,2.344-2.344h89.069C184.263,460.389,185.312,461.439,185.312,462.733L185.312,462.733z"/>
				<path style="fill:#01334C;" d="M225.68,461.171c0,2.158-1.749,3.906-3.907,3.906h-77.349c-2.158,0-3.906-1.749-3.906-3.906
					l3.002-52.348c0-2.158,1.749-3.907,3.907-3.907h77.349c2.158,0,3.907,1.749,3.907,3.907L225.68,461.171z"/>
				<path style="fill:#002838;" d="M146.219,461.171l3.002-52.348c0-2.158,1.749-3.907,3.907-3.907h-5.702
					c-2.158,0-3.907,1.749-3.907,3.907l-3.002,52.348c0,2.158,1.749,3.906,3.906,3.906h5.702
					C147.968,465.077,146.219,463.328,146.219,461.171z"/>
			</g>
		</g>
	</g>
	<g>
		<g>
			<path style="opacity:0.2;fill:#00D7CF;" d="M329.976,28.902c-86.26,2.507-64.877,117.516-64.877,117.516
				c1.491,51.323,9.633,77.906,24.477,91.238H450.83c30.94-15.867,27.177-53.365,32.565-124.153
				C490.789,16.368,416.236,26.395,329.976,28.902z"/>
			<g>
				<g>
					<g>
						<g>
							<path style="fill:#00D7CF;" d="M285.945,117.736c0.644-6.452,1.288-12.904,1.932-19.356c0.373-3.741,0.747-7.481,1.12-11.222
								c0.074-0.738,0.147-1.476,0.221-2.214c-0.052,0.523-0.679,0.219,0.752,0.518c1.137,0.238,2.274,0.475,3.411,0.713
								c1.455,0.304-1.677,16.436-1.966,18.481c-0.53,3.757-1.061,7.513-1.591,11.27c-0.105,0.746-0.211,1.493-0.316,2.239
								c0.065-0.462-2.471-0.407-3.701-0.493c-0.175-0.012-0.878,0.303-0.488,0.331c1.438,0.101,2.877,0.203,4.315,0.304
								c0.128,0.009,0.595-0.049,0.62-0.229c1.505-10.658,3.009-21.316,4.514-31.974c0.007-0.05-0.01-0.08-0.066-0.091
								c-1.85-0.387-3.701-0.773-5.551-1.16c-0.173-0.036-0.668,0.024-0.691,0.257c-1.093,10.943-2.185,21.887-3.278,32.83
								C285.172,118.064,285.921,117.979,285.945,117.736z"/>
						</g>
					</g>
					<g>
						<g>
							<path style="fill:#00D7CF;" d="M300.148,81.187c0.005,6.993,0.009,13.986,0.014,20.979c0.003,4.489,0.006,8.977,0.009,13.466
								c0.001,1.097,0.001,2.193,0.002,3.29c0,0.465,1.134,0.084,0.03-0.1c-1.158-0.193-2.315-0.385-3.473-0.578
								c-2.466-0.41-1.266-3.754-1.188-5.989c0.171-4.917,0.342-9.833,0.514-14.75c0.156-4.483,0.312-8.967,0.469-13.451
								c0.035-0.997,0.069-1.994,0.104-2.991c-0.007,0.199-0.413,0.151,1.039,0.165c0.876,0.009,1.752,0.017,2.628,0.026
								c0.185,0.002,0.937-0.351,0.524-0.355c-1.444-0.014-2.889-0.028-4.333-0.043c-0.164-0.002-0.663,0.052-0.671,0.287
								c-0.431,12.377-0.862,24.755-1.293,37.132c0.015,0.032,0.04,0.051,0.075,0.057c1.884,0.313,3.768,0.627,5.651,0.94
								c0.168,0.028,0.743-0.022,0.742-0.276c-0.008-12.676-0.017-25.353-0.025-38.029
								C300.966,80.809,300.148,80.935,300.148,81.187z"/>
						</g>
					</g>
					<g>
						<g>
							<path style="fill:#00D7CF;" d="M316.711,81.767c2.755,6.312,5.509,12.624,8.264,18.936c1.86,4.262,3.72,8.525,5.58,12.787
								c0.529,1.212,1.058,2.424,1.587,3.636c0.099,0.227,0.198,0.453,0.297,0.68c0.544-0.298,0.437-0.366-0.321-0.204
								c-0.629,0.037-1.257,0.074-1.886,0.11c-2.671,0.156-2.693-2.618-3.654-5.037c-1.785-4.492-3.569-8.984-5.354-13.475
								c-1.71-4.305-3.421-8.61-5.131-12.916c-0.457-1.15-0.914-2.3-1.371-3.45c-0.357-0.898,1.365-0.748,2.437-1.035
								c0.479-0.128,0.403-0.412-0.076-0.284c-1,0.268-2,0.535-3,0.802c-0.065,0.017-0.421,0.124-0.371,0.251
								c4.706,11.846,9.413,23.691,14.119,35.537c0.032,0.08,0.169,0.072,0.235,0.068c1.54-0.09,3.081-0.18,4.621-0.271
								c0.081-0.005,0.658-0.115,0.582-0.287c-5.247-12.023-10.494-24.046-15.741-36.069
								C317.434,81.33,316.638,81.599,316.711,81.767z"/>
						</g>
					</g>
					<g>
						<g>
							<path style="fill:#00D7CF;" d="M322.043,81.767c2.755,6.312,5.509,12.624,8.264,18.936c1.86,4.262,3.72,8.525,5.58,12.787
								c0.529,1.212,1.058,2.424,1.587,3.636c0.099,0.227,0.198,0.453,0.297,0.68c0.544-0.298,0.437-0.366-0.321-0.204
								c-0.629,0.037-1.258,0.074-1.886,0.11c-2.671,0.156-2.693-2.618-3.654-5.037c-1.785-4.492-3.569-8.984-5.354-13.475
								c-1.71-4.305-3.421-8.61-5.131-12.916c-0.457-1.15-0.914-2.3-1.371-3.45c-0.357-0.898,1.365-0.748,2.437-1.035
								c0.479-0.128,0.403-0.412-0.076-0.284c-1,0.268-2,0.535-3,0.802c-0.065,0.017-0.421,0.124-0.371,0.251
								c4.706,11.846,9.413,23.691,14.119,35.537c0.032,0.08,0.169,0.072,0.235,0.068c1.54-0.09,3.081-0.18,4.621-0.271
								c0.081-0.005,0.658-0.115,0.582-0.287c-5.247-12.023-10.494-24.046-15.741-36.069
								C322.766,81.33,321.97,81.599,322.043,81.767z"/>
						</g>
					</g>
					<g>
						<g>
							<path style="fill:#00D7CF;" d="M312.889,81.255c0.104,7.962,0.208,15.924,0.311,23.886c0.055,4.206,0.11,8.413,0.164,12.619
								c0.005,0.411,0.011,0.822,0.016,1.233c0.004,0.327,1.418-0.026-0.124-0.183c-2.549-0.259-5.098-0.517-7.647-0.776
								c-1.658-0.168-0.581-4.895-0.501-6.577c0.253-5.317,0.505-10.633,0.758-15.95c0.206-4.339,0.412-8.678,0.619-13.017
								c0.02-0.429,0.041-0.858,0.061-1.287c0.016-0.342-1.39,0.062,0.294,0.078c2.08,0.021,4.159,0.041,6.239,0.062
								c0.242,0.002,1.224-0.459,0.685-0.465c-2.465-0.024-4.93-0.049-7.395-0.073c-0.217-0.002-0.862,0.067-0.876,0.375
								c-0.588,12.376-1.176,24.751-1.764,37.127c-0.003,0.071,0.157,0.086,0.191,0.089c3.218,0.327,6.437,0.653,9.655,0.98
								c0.202,0.02,0.88-0.083,0.876-0.375c-0.165-12.678-0.331-25.356-0.496-38.034C313.954,80.759,312.885,80.928,312.889,81.255z
								"/>
						</g>
					</g>
				</g>
				<polygon style="fill:#FFFFFF;" points="274.36,118.059 351.36,116.393 351.693,122.393 274.027,122.393 				"/>
			</g>
		</g>
		<g>
			<g>
				<g>
					<g>
						<path style="fill:#FFAFA4;" d="M392.976,145.854c0,0,3.665,14.661-2.851,15.476c-6.516,0.814-29.73-12.625-37.061,23.621
							c-7.331,36.246-4.073,50.908-4.073,50.908l85.525-1.629c0,0,15.883-53.351,8.96-65.569c-6.923-12.218-26.472,0-28.101-6.109
							c-1.629-6.109,3.016-27.229,3.016-27.229L392.976,145.854z"/>
						<g>
							<path style="fill:#EA8D83;" d="M393.685,157.324c0.793-0.209,1.584-0.434,2.372-0.691c7.125-2.329,13.706-5.898,20.164-9.654
								c0.967-6.18,2.17-11.656,2.17-11.656l-25.415,10.531C392.976,145.854,394.694,152.728,393.685,157.324z"/>
							<path style="fill:#EA8D83;" d="M443.476,168.661c-4.282-7.556-13.389-5.767-20.104-4.746
								c0.699,15.831,1.347,31.672,1.368,47.52c0.01,7.664-0.341,15.329-0.593,22.992l10.369-0.197
								C434.517,234.23,450.4,180.878,443.476,168.661z"/>
						</g>
					</g>
					<g>
						<path style="fill:#FF696A;" d="M379.129,158.479c0,0-9.231,13.982,10.724,20.091c19.956,6.109,25.522-16.018,25.522-16.018
							c-10.756,1.772,22.205-4.578,28.101,6.109c6.516,11.811,5.566,28.915,5.566,28.915l-23.893,1.086l-1.002,35.765l-80.45-1.827
							C343.698,232.6,341.254,158.072,379.129,158.479z"/>
						<path style="fill:#EF525A;" d="M349.043,188.282c-6.121,20.602-5.345,44.318-5.345,44.318l80.45,1.827l0.862-30.752
							C398.781,208.906,369.364,204.361,349.043,188.282z"/>
					</g>
				</g>
				<g>
					<path style="fill:#FFAFA4;" d="M412.389,84.901c0,0-21.449-9.231-33.667,13.304c-12.218,22.535-8.919,47.913,6.788,52.401
						c17.105,4.887,29.594-6.788,39.911-28.78C435.738,99.834,415.918,85.987,412.389,84.901z"/>
					<g>
						<g>
							<path style="fill:#00C1B3;" d="M427.507,88.386c0,0-7.839-5.412-4.666-14.371c3.173-8.959,12.878-8.212,17.544-2.799
								l-5.786-1.493c0,0,1.866-6.159,10.078-3.546c8.212,2.613,11.571,9.518,2.24,20.53c0,0,5.786-1.306,6.532-6.719
								c0,0,1.12,11.572-7.279,12.505c-8.399,0.933-7.279-2.24-7.279-2.24s3.359,6.159,13.998,1.493c0,0-6.532,11.945-23.889-0.747
								L427.507,88.386z"/>
							<circle style="fill:#FFDD88;" cx="427.899" cy="90.365" r="7.636"/>
						</g>
						<g>
							<g>
								<path style="fill:#00D7CF;" d="M413.95,88.838c0,0-6.516,22.807,9.367,30.137c0,0-6.109,5.702-5.498,13.643
									c0,0,4.684-12.421,10.181-8.756c0,0,1.833,1.018,1.018,4.48c0,0,13.44-14.051,7.534-29.934
									C430.648,82.525,418.226,77.842,413.95,88.838z"/>
								<path style="fill:#00C1B3;" d="M436.553,98.408c-0.271-0.728-0.559-1.424-0.856-2.104c-1.106,3.694-3.143,7.038-6.439,9.594
									c-4.049,3.141-9.344,4.31-14.632,4.153c1.572,3.625,4.257,6.878,8.69,8.924c0,0-6.109,5.702-5.498,13.643
									c0,0,4.684-12.421,10.181-8.756c0,0,1.833,1.018,1.018,4.48C429.019,128.342,442.458,114.291,436.553,98.408z"/>
								<path style="fill:#00D7CF;" d="M382.591,79.674c-22.399,11.607-24.028,48.057-14.865,60.885c0,0-4.277-13.901,0.015-29.665
									c-0.8,4.65-0.889,10.697,0.8,18.261c0,0,0.777-22.225,13.746-33.619c-0.345,2.187-0.103,3.686-0.103,3.686
									c4.7,0.204,8.527-0.463,11.175-1.178l-6.695,2.4c15.629,1.226,23.877-5.618,27.003-9.081
									c3.15,1.827,4.763,3.787,4.763,3.787l2.24-9.571C420.67,85.58,404.99,68.067,382.591,79.674z"/>
							</g>
							<path style="fill:#FFAFA4;" d="M417.819,132.618c0,0,4.276-12.014,10.181-8.756c5.905,3.258-3.054,15.883-11.81,12.625
								L417.819,132.618z"/>
						</g>
					</g>
				</g>
				<g>
					<path style="fill:#01334C;" d="M382.457,110.39c-0.483,1.792-0.313,3.395,0.379,3.582c0.692,0.186,1.645-1.115,2.128-2.906
						s0.313-3.395-0.379-3.582C383.893,107.297,382.94,108.598,382.457,110.39z"/>
					<path style="fill:#01334C;" d="M403.228,119.553c-0.483,1.792-0.313,3.395,0.379,3.582c0.692,0.187,1.645-1.115,2.128-2.906
						c0.483-1.792,0.313-3.395-0.379-3.582C404.663,116.461,403.711,117.762,403.228,119.553z"/>
					<g>
						<path style="fill:#01334C;" d="M399.492,109.812c0,0,0.194-0.199,0.597-0.469c0.199-0.142,0.454-0.287,0.755-0.448
							c0.308-0.14,0.654-0.323,1.062-0.437c0.399-0.151,0.854-0.241,1.342-0.325c0.489-0.033,1.02-0.133,1.565-0.047
							c0.272,0.031,0.555,0.041,0.833,0.093c0.276,0.064,0.557,0.134,0.836,0.217c0.556,0.166,1.086,0.444,1.609,0.708
							c0.463,0.355,0.996,0.638,1.38,1.059c0.4,0.401,0.821,0.783,1.106,1.232c0.306,0.434,0.613,0.849,0.835,1.274
							c0.217,0.429,0.402,0.842,0.569,1.222c0.189,0.369,0.283,0.741,0.371,1.065c0.095,0.322,0.161,0.607,0.218,0.84
							c0.11,0.467,0.156,0.735,0.156,0.735s-0.175-0.219-0.453-0.605c-0.296-0.375-0.614-0.962-1.108-1.578
							c-0.246-0.309-0.507-0.641-0.763-1.001c-0.27-0.35-0.62-0.658-0.918-1.022c-0.285-0.385-0.711-0.63-1.049-0.978
							c-0.338-0.356-0.791-0.551-1.176-0.844c-0.42-0.224-0.839-0.472-1.285-0.62c-0.226-0.067-0.446-0.146-0.664-0.229
							c-0.222-0.068-0.452-0.097-0.674-0.148c-0.443-0.113-0.893-0.113-1.319-0.163c-0.427,0.011-0.841-0.017-1.223,0.027
							c-0.768,0.05-1.419,0.171-1.877,0.268C399.757,109.73,399.492,109.812,399.492,109.812z"/>
					</g>
					<g>
						<path style="fill:#01334C;" d="M390.94,106.146c0,0-0.783-0.805-1.965-1.888c-0.597-0.537-1.297-1.141-2.085-1.7
							c-0.386-0.29-0.816-0.534-1.239-0.785c-0.426-0.248-0.879-0.443-1.334-0.604c-0.455-0.15-0.916-0.294-1.379-0.323
							c-0.461-0.045-0.919-0.057-1.363,0.007c-0.44,0.073-0.876,0.161-1.278,0.31c-0.405,0.138-0.778,0.321-1.132,0.485
							c-0.33,0.203-0.667,0.355-0.932,0.544c-0.269,0.183-0.527,0.322-0.714,0.47c-0.39,0.277-0.63,0.431-0.63,0.431
							s0.134-0.242,0.398-0.658c0.268-0.411,0.702-0.972,1.344-1.555c0.649-0.567,1.545-1.149,2.665-1.433
							c0.557-0.129,1.161-0.224,1.769-0.167c0.612,0.024,1.21,0.178,1.791,0.355c1.136,0.429,2.143,1.075,2.933,1.812
							c0.804,0.723,1.428,1.503,1.892,2.207C390.626,105.054,390.94,106.146,390.94,106.146z"/>
					</g>
					<g>
						<path style="fill:#FF8973;" d="M418.391,135.323c0.358-0.051,0.704-0.153,0.999-0.294c0.147-0.072,0.275-0.163,0.372-0.258
							c0.099-0.096,0.151-0.208,0.179-0.314c0.017-0.052,0.004-0.118,0.014-0.17c0.012-0.051-0.016-0.125-0.019-0.183
							c-0.005-0.118-0.082-0.264-0.119-0.391c-0.131-0.271-0.296-0.54-0.469-0.811l-0.145-0.227l0.122-0.325
							c0.43-1.145,0.951-2.223,1.578-3.27c0.32-0.517,0.642-1.04,1.029-1.528c0.387-0.487,0.797-0.966,1.295-1.404
							c0.509-0.412,1.093-0.843,1.938-0.967c0.408-0.065,0.925,0.07,1.231,0.266c0.213,0.116,0.618,0.373,0.845,0.66
							c0.254,0.274,0.411,0.632,0.509,0.973c0.083,0.349,0.093,0.7,0.037,1.023c-0.089,0.651-0.382,1.22-0.745,1.7
							c0.129-0.587,0.177-1.179,0.102-1.709c-0.03-0.268-0.128-0.506-0.225-0.716c-0.121-0.2-0.25-0.38-0.442-0.499
							c-0.185-0.133-0.292-0.194-0.617-0.314c-0.213-0.079-0.308-0.062-0.483-0.018c-0.331,0.079-0.74,0.382-1.098,0.753
							c-0.378,0.354-0.728,0.786-1.058,1.233c-0.328,0.451-0.668,0.906-0.976,1.388c-0.624,0.954-1.233,1.952-1.82,2.936
							l-0.023-0.552l0.226,0.545c0.067,0.187,0.107,0.397,0.158,0.591c0.019,0.221,0.067,0.42,0.034,0.658
							c-0.018,0.118-0.012,0.227-0.057,0.346c-0.046,0.116-0.079,0.233-0.148,0.335c-0.271,0.434-0.727,0.615-1.109,0.651
							C419.113,135.479,418.74,135.426,418.391,135.323z"/>
					</g>
					<g>
						<path style="fill:#FF8973;" d="M390.136,110.537c-0.141,1.25-0.461,2.476-0.898,3.663c-0.216,0.596-0.471,1.178-0.761,1.749
							c-0.131,0.292-0.302,0.566-0.459,0.847c-0.158,0.28-0.333,0.552-0.528,0.815c-0.196,0.261-0.357,0.545-0.584,0.789
							c-0.213,0.254-0.437,0.498-0.662,0.742l-0.763,0.667c-0.25,0.227-0.568,0.388-0.851,0.583
							c-0.28,0.203-0.619,0.319-0.948,0.446l-0.495,0.188c-0.169,0.05-0.35,0.068-0.524,0.102c-0.353,0.037-0.702,0.166-1.057,0.11
							l-1.056-0.088l0.649-1.234c0.833,0.95,1.638,1.927,2.418,2.926c0.785,0.995,1.536,2.022,2.234,3.098
							c-1.032-0.763-2.011-1.576-2.955-2.421c-0.949-0.841-1.874-1.704-2.771-2.593l-1.232-1.221l1.881-0.012l0.797-0.005
							c0.266,0.038,0.517-0.081,0.775-0.109c0.127-0.029,0.259-0.038,0.383-0.079l0.366-0.157c0.245-0.101,0.493-0.19,0.716-0.355
							c0.227-0.152,0.478-0.257,0.689-0.444l0.648-0.535c0.199-0.205,0.392-0.417,0.6-0.616c0.215-0.191,0.38-0.439,0.575-0.657
							c0.194-0.219,0.373-0.453,0.539-0.7c0.17-0.243,0.368-0.468,0.524-0.724c0.338-0.495,0.651-1.01,0.972-1.528
							C388.976,112.735,389.566,111.655,390.136,110.537z"/>
					</g>
					<g>
						<path style="fill:#FF8973;" d="M381.24,131.213c0,0,0.232,0.19,0.652,0.487c0.417,0.299,1.014,0.713,1.75,1.152
							c0.361,0.23,0.775,0.438,1.196,0.676c0.428,0.226,0.895,0.432,1.367,0.654c0.485,0.197,0.98,0.406,1.501,0.566
							c0.509,0.197,1.045,0.329,1.584,0.446c0.527,0.173,1.083,0.203,1.616,0.308c0.538,0.072,1.075,0.097,1.596,0.149
							c0.521,0.022,1.028-0.004,1.514,0.009c0.488,0.024,0.941-0.071,1.371-0.085c0.425-0.045,0.831-0.035,1.175-0.109
							c0.347-0.06,0.656-0.096,0.912-0.13c0.513-0.063,0.817-0.087,0.817-0.087s-0.254,0.152-0.716,0.395
							c-0.232,0.119-0.515,0.27-0.848,0.424c-0.326,0.179-0.724,0.287-1.155,0.425c-0.435,0.12-0.898,0.325-1.419,0.376
							c-0.516,0.073-1.064,0.199-1.638,0.217c-0.573-0.01-1.175,0.059-1.777-0.019c-0.599-0.095-1.224-0.113-1.819-0.287
							c-0.6-0.151-1.193-0.321-1.754-0.556c-0.579-0.189-1.091-0.505-1.603-0.764c-0.501-0.28-0.959-0.598-1.377-0.911
							c-0.417-0.318-0.794-0.635-1.113-0.961c-0.66-0.623-1.116-1.231-1.411-1.665C381.365,131.488,381.24,131.213,381.24,131.213z"
							/>
					</g>
				</g>
				<g>
					<path style="fill:#F9A198;" d="M399.289,158.886c0,0-1.629-10.589,4.276-14.254c5.905-3.665,7.534-4.48,7.534-4.48
						s-9.978-21.381,2.036-1.018c0,0-1.018-23.01,2.647-1.222c0,0,4.073-24.639,2.036,3.462l-7.534,10.589
						c0,0,17.716,30.137,24.436,53.555c6.72,23.417,2.159,31.492-9.367,30.748C406.416,235.044,399.289,158.886,399.289,158.886z"/>
				</g>
			</g>
			<g>
				<path style="fill:#002838;" d="M326.098,235.686c0,1.294,1.049,2.344,2.344,2.344h89.069c1.294,0,2.344-1.049,2.344-2.344l0,0
					c0-1.295-1.049-2.344-2.344-2.344h-89.069C327.148,233.342,326.098,234.392,326.098,235.686L326.098,235.686z"/>
				<path style="fill:#01334C;" d="M285.731,234.124c0,2.158,1.749,3.907,3.907,3.907h77.349c2.158,0,3.907-1.749,3.907-3.907
					l-13.533-52.348c0-2.158-1.749-3.907-3.907-3.907h-77.349c-2.158,0-3.907,1.749-3.907,3.907L285.731,234.124z"/>
				<path style="fill:#002838;" d="M365.192,234.124l-13.533-52.348c0-2.158-1.749-3.907-3.907-3.907h5.702
					c2.158,0,3.24,1.19,5.907,10.857l11.533,45.397c0,2.158-1.749,3.907-3.907,3.907h-5.702
					C363.443,238.03,365.192,236.281,365.192,234.124z"/>
			</g>
		</g>
	</g>
	<g>
		<g>
			<path style="opacity:0.3;fill:#FFAFA4;" d="M52.721,238.133h184.224c26.256-24.098,10.369-67.837,9.112-126.489
				C244.15,22.658,209.191,32.828,110.67,25.2c-98.521-7.627-88.351,69.283-85.809,158.27
				C25.604,209.467,36.988,226.72,52.721,238.133z"/>
			<g>
				<g>
					<g>
						<path style="fill:#FFAFA4;" d="M204.653,95.057c-11.922-0.511-23.843-1.022-35.765-1.533
							c-5.901-0.253-11.802-0.506-17.703-0.759c-1.641-0.07-1.049,0.488-1.049-0.558c0-2.761,0-5.522,0-8.282
							c0-7.592,0-15.183,0-22.775c0-1.077,0-2.154,0-3.232c0-1.323,0.261-0.796-0.628-0.75c1.372-0.072,2.744-0.144,4.115-0.217
							c14.407-0.758,28.813-1.516,43.22-2.275c1.83-0.096,3.66-0.193,5.491-0.289c0.473-0.025,0.946-0.05,1.419-0.075
							c0.724-0.038-0.164-0.242-0.164-0.247c0.024,3.848,0.048,7.696,0.073,11.543c0.063,9.967,0.125,19.934,0.188,29.9
							c0.004,0.587,1.188,0.385,1.185-0.104c-0.087-13.856-0.174-27.711-0.261-41.567c-0.002-0.292-0.286-0.363-0.533-0.35
							c-18.213,0.958-36.425,1.917-54.638,2.876c-0.215,0.011-0.652,0.179-0.652,0.455c0,12.113,0,24.225,0,36.338
							c0,0.216,0.173,0.341,0.383,0.35c18.3,0.784,36.6,1.568,54.899,2.353C204.77,95.885,205.448,95.091,204.653,95.057z"/>
					</g>
				</g>
				<g>
					<g>
						<path style="fill:#FFAFA4;" d="M201.798,91.948c-12.3-0.532-24.6-1.064-36.901-1.597c-2.981-0.129-5.963-0.258-8.944-0.387
							c-0.917-0.04-1.834-0.079-2.75-0.119c-1.026-0.044-0.876-0.209-0.877,0.219c0.013-6.077,0.026-12.154,0.039-18.23
							c0.007-3.289,0.014-6.578,0.021-9.867c0.002-0.762,0.003-1.524,0.005-2.286c0,0.199-1,0.263,0.301,0.191
							c5.762-0.317,11.523-0.634,17.285-0.951c7.755-0.426,15.51-0.853,23.264-1.28c2.34-0.129,4.68-0.257,7.02-0.386
							c1.872-0.103,1.069-0.707,1.058,0.818c-0.08,11.428-0.161,22.855-0.241,34.283c-0.004,0.526,1.06,0.347,1.064-0.094
							c0.083-11.833,0.167-23.667,0.25-35.5c0.002-0.262-0.259-0.327-0.479-0.314c-16.667,0.917-33.333,1.833-50,2.75
							c-0.193,0.011-0.584,0.161-0.585,0.408c-0.022,10.198-0.044,20.396-0.066,30.594c0,0.194,0.156,0.306,0.344,0.314
							c16.605,0.719,33.211,1.437,49.816,2.156C201.904,92.691,202.512,91.979,201.798,91.948z"/>
					</g>
				</g>
				<polygon style="opacity:0.5;fill:#FF696A;" points="198.392,88.618 156.845,87.1 156.845,63.65 198.194,61.794 				"/>
			</g>
			<g>
				<g>
					<g>
						<path style="fill:#FFAFA4;" d="M185.845,109.987c12.468,0.346,24.935,0.691,37.403,1.037c1.86,0.051,3.719,0.103,5.579,0.155
							c0.301,0.008-0.064-0.51-0.064,0.256c0,1.084,0,2.168,0,3.252c0,7.565,0,15.13,0,22.696c0,2.818,0,5.636,0,8.453
							c0,1.991,1.159,1.24-0.663,1.21c-6.441-0.103-12.882-0.207-19.323-0.31c-6.818-0.109-13.636-0.219-20.454-0.328
							c-0.646-0.01-1.291-0.021-1.937-0.031c-0.291-0.005,0.071,0.515,0.073-0.241c0.006-2.546,0.012-5.091,0.017-7.637
							c0.022-9.635,0.044-19.271,0.065-28.906c0.001-0.509-1.028-0.335-1.029,0.09c-0.028,12.361-0.056,24.722-0.084,37.083
							c0,0.184,0.15,0.301,0.333,0.304c14.444,0.232,28.889,0.464,43.333,0.696c0.214,0.003,0.696-0.092,0.696-0.395
							c0-12.193,0-24.387,0-36.58c0-0.185-0.15-0.299-0.332-0.304c-14.417-0.4-28.833-0.799-43.25-1.199
							C185.745,109.276,185.155,109.968,185.845,109.987z"/>
					</g>
				</g>
				<g>
					<g>
						<path style="fill:#FFAFA4;" d="M188.122,112.695c12.083,0.331,24.166,0.663,36.249,0.994c1.823,0.05,1.689-0.498,1.689,0.756
							c0,3.05,0,6.1,0,9.15c0,6.964,0,13.929,0,20.893c0,1.133-0.072,0.611,0.479,0.62c-0.617-0.01-1.234-0.02-1.852-0.029
							c-3.148-0.05-6.295-0.1-9.443-0.15c-7.545-0.12-15.091-0.24-22.636-0.359c-1.01-0.016-3.947-0.302-3.948,0.16
							c0.005-2.129,0.01-4.258,0.015-6.388c0.017-7.498,0.034-14.996,0.051-22.494c0.003-1.167,0.005-2.333,0.008-3.5
							c0.001-0.448-0.904-0.295-0.904,0.08c-0.025,10.807-0.049,21.614-0.074,32.421c0,0.162,0.132,0.265,0.292,0.267
							c12.768,0.203,25.536,0.405,38.305,0.608c0.188,0.003,0.612-0.081,0.612-0.347c0-10.66,0-21.321,0-31.981
							c0-0.163-0.132-0.263-0.292-0.267c-12.743-0.349-25.487-0.699-38.231-1.048C188.034,112.07,187.515,112.678,188.122,112.695z"
							/>
					</g>
				</g>
				<polygon style="opacity:0.5;fill:#FF696A;" points="192.587,117.555 222.75,118.164 221.996,141.021 192.444,140.51 				"/>
			</g>
		</g>
		<g>
			<g>
				<g>
					<g>
						<g>
							<path style="fill:#FFAFA4;" d="M58.522,158.718c0,0-3.265-13.468,14.284-19.59c17.549-6.122,16.325-3.265,11.019-41.22
								l26.528-2.449c0,0,0.816,34.283,8.571,36.323c7.754,2.041,28.841-7.346,39.86,15.101c11.019,22.447,7.21,78.904,7.21,78.904
								L85.05,237.078C85.05,237.078,58.93,183.613,58.522,158.718z"/>
							<path style="fill:#EA8D83;" d="M116.812,130.908c0.162-0.035,0.325-0.065,0.487-0.101
								c-6.246-6.006-6.945-35.348-6.945-35.348l-26.528,2.449c1.589,11.371,2.812,19.077,3.274,24.461
								C92.346,125.706,103.274,131.329,116.812,130.908z"/>
							<path style="fill:#EA8D83;" d="M159.198,162.505c-8.24,9.902-16.821,19.568-25.478,29.107
								c-14.069,15.501-28.773,30.405-43.956,44.809l76.231-10.634c0,0,2.802-41.544-3.357-67.527
								C161.506,159.686,160.363,161.105,159.198,162.505z"/>
						</g>
						<path style="fill:#FFAFA4;" d="M80.471,96.205c0,0-9.352-27.683,4.489-39.28c13.841-11.597,35.29-18.455,43.146,13.343
							c5.375,21.757,11.722,47.51-5.487,54.618C105.411,131.993,86.831,115.284,80.471,96.205z"/>
					</g>
					<g>
						<g>
							<path style="fill:#FF696A;" d="M125.612,48.819c0,0,6.484-4.24,3.741-11.971c0,0-2.282,1.643-5.573,3.22
								c0.319-0.775,0.537-1.818,0.586-3.22c0,0-45.64-9.976-47.884,19.453c0,0-8.479-0.997-9.976,9.976
								c-1.496,10.974,8.729,22.945,8.729,22.945s1.496-1.496,2.743-1.247c0,0,2.245,0,4.24,6.235
								c1.995,6.235,2.993,7.981,2.993,7.981l3.741-0.998l-4.988-17.458c0,0,9.976-3.741,3.99-18.705
								c0,0,36.661,4.739,46.388-17.956L125.612,48.819z"/>
							<path style="fill:#EF525A;" d="M106.811,64.667c-2.534-0.376-5.022-0.914-7.403-1.744
								c-8.689-3.027-16.016-10.378-17.925-19.062c-2.744,3.043-4.593,7.087-5.001,12.44c0,0-8.479-0.998-9.976,9.976
								c-1.496,10.973,8.729,22.945,8.729,22.945s1.496-1.496,2.743-1.247c0,0,2.244,0,4.24,6.235s2.993,7.981,2.993,7.981
								l3.741-0.998l-4.988-17.458c0,0,9.976-3.741,3.99-18.705C87.953,65.03,96.717,66.161,106.811,64.667z"/>
						</g>
						<path style="fill:#FFAFA4;" d="M85.208,102.032c0,0-3.896-15.065-7.533-14.806c-3.637,0.26-6.234,3.377-4.416,9.091
							S85.987,111.383,85.208,102.032z"/>
					</g>
				</g>
				<g>
					<g>
						<path style="fill:#FF8973;" d="M113.65,80.732c0.729,1.542,1.457,3.055,2.216,4.542c0.202,0.366,0.377,0.743,0.571,1.111
							l0.599,1.091c0.409,0.718,0.796,1.449,1.252,2.129c0.229,0.339,0.415,0.708,0.659,1.033l0.693,1.003
							c0.252,0.314,0.511,0.622,0.751,0.945c0.232,0.334,0.526,0.598,0.789,0.898l0.404,0.439l0.445,0.383
							c0.302,0.244,0.564,0.558,0.898,0.746c0.324,0.203,0.628,0.459,0.969,0.626c0.348,0.148,0.687,0.323,1.036,0.491l1.086,0.524
							l-0.822,0.649c-1.76,1.39-3.561,2.733-5.478,3.946c1.431-1.76,2.978-3.39,4.566-4.973l0.264,1.173
							c-0.433-0.145-0.877-0.283-1.31-0.449c-0.427-0.174-0.801-0.436-1.205-0.654c-0.415-0.21-0.74-0.519-1.101-0.793l-0.522-0.432
							l-0.465-0.478c-0.301-0.325-0.642-0.625-0.902-0.978c-0.28-0.34-0.543-0.694-0.812-1.042l-0.718-1.094
							c-0.247-0.361-0.452-0.741-0.66-1.122c-0.209-0.38-0.414-0.761-0.593-1.153c-0.182-0.391-0.382-0.773-0.547-1.17
							c-0.324-0.797-0.643-1.592-0.908-2.407C114.276,84.09,113.85,82.431,113.65,80.732z"/>
					</g>
					<g>
						<path style="fill:#FF8973;" d="M107.95,109.71c0,0,0.232,0.089,0.631,0.223c0.397,0.139,0.96,0.325,1.626,0.526
							c0.332,0.104,0.695,0.195,1.073,0.301c0.374,0.115,0.787,0.168,1.19,0.287c0.832,0.139,1.702,0.334,2.588,0.361
							c0.439,0.062,0.88,0.062,1.316,0.062c0.436,0.017,0.862-0.021,1.281-0.037c0.42-0.004,0.816-0.091,1.206-0.121
							c0.39-0.032,0.75-0.111,1.091-0.173c0.335-0.077,0.667-0.094,0.94-0.174c0.274-0.077,0.523-0.128,0.729-0.175
							c0.414-0.089,0.664-0.128,0.664-0.128s-0.176,0.168-0.508,0.442c-0.167,0.135-0.371,0.304-0.617,0.48
							c-0.24,0.189-0.546,0.333-0.875,0.511c-0.33,0.176-0.689,0.376-1.104,0.493c-0.409,0.126-0.835,0.326-1.305,0.381
							c-0.466,0.068-0.947,0.216-1.447,0.202c-0.498,0.021-1.006,0.044-1.51-0.007c-0.507-0.035-1.003-0.127-1.489-0.227
							c-0.492-0.074-0.944-0.278-1.394-0.405c-0.875-0.343-1.658-0.731-2.264-1.166C108.527,110.544,107.95,109.71,107.95,109.71z"
							/>
					</g>
					<g>
						<path style="fill:#01334C;" d="M115.13,77.852c0,0-0.022-0.296,0.076-0.775c0.085-0.486,0.29-1.151,0.701-1.872
							c0.207-0.359,0.459-0.736,0.78-1.096c0.301-0.38,0.703-0.707,1.118-1.052c0.218-0.161,0.457-0.302,0.699-0.448
							c0.236-0.156,0.491-0.29,0.769-0.387c0.272-0.106,0.545-0.227,0.828-0.318l0.883-0.185c0.591-0.13,1.201-0.084,1.788-0.069
							c0.584,0.042,1.14,0.214,1.666,0.348c0.507,0.192,0.968,0.437,1.393,0.664c0.418,0.241,0.75,0.561,1.063,0.826
							c0.309,0.274,0.572,0.536,0.759,0.824c0.199,0.271,0.35,0.53,0.473,0.735c0.244,0.415,0.344,0.682,0.344,0.682
							s-0.307,0.015-0.773-0.011c-0.232-0.015-0.513-0.024-0.809-0.061c-0.292-0.049-0.63-0.055-0.978-0.068
							c-0.348-0.008-0.698-0.079-1.065-0.078c-0.366,0.009-0.732-0.011-1.095-0.029c-0.364,0.044-0.724,0.028-1.078,0.051
							c-0.35,0.081-0.709,0.026-1.051,0.137l-0.526,0.073c-0.169,0.059-0.346,0.088-0.521,0.13c-0.357,0.052-0.692,0.21-1.056,0.28
							c-0.338,0.141-0.708,0.217-1.041,0.364c-0.348,0.118-0.681,0.252-1.001,0.38C116.07,77.47,115.13,77.852,115.13,77.852z"/>
					</g>
					<g>
						<path style="fill:#01334C;" d="M109.048,79.903c0,0-0.328-0.037-0.858-0.118c-0.509-0.079-1.236-0.193-2.108-0.329
							c-1.677-0.267-3.769-0.608-5.556-0.455c-0.447,0.033-0.878,0.103-1.293,0.197c-0.21,0.044-0.403,0.12-0.613,0.163
							c-0.192,0.081-0.396,0.138-0.589,0.221c-0.774,0.319-1.506,0.779-2.16,1.252c-0.3,0.259-0.64,0.468-0.893,0.708
							c-0.251,0.236-0.526,0.423-0.711,0.608c-0.393,0.356-0.665,0.559-0.665,0.559s-0.028-0.322,0.006-0.883
							c0.01-0.284,0.064-0.618,0.152-0.999c0.067-0.391,0.224-0.809,0.398-1.275c0.214-0.445,0.461-0.936,0.824-1.408
							c0.351-0.475,0.8-0.94,1.334-1.351c0.534-0.409,1.154-0.766,1.827-1.007c0.669-0.262,1.383-0.391,2.087-0.465
							c0.703-0.037,1.404-0.028,2.06,0.092c0.661,0.096,1.281,0.278,1.855,0.491c1.146,0.433,2.1,1.021,2.833,1.618
							c0.733,0.601,1.261,1.189,1.593,1.638C108.904,79.605,109.048,79.903,109.048,79.903z"/>
					</g>
					<g>
						<path style="fill:#FF8973;" d="M82.84,103.812c-0.404-0.05-0.809-0.154-1.193-0.338c-0.194-0.09-0.384-0.201-0.556-0.349
							c-0.082-0.079-0.179-0.144-0.248-0.245c-0.07-0.098-0.161-0.182-0.207-0.302c-0.048-0.116-0.126-0.226-0.141-0.357
							c-0.018-0.127-0.06-0.262-0.047-0.388c0.009-0.127,0.018-0.258,0.035-0.386l0.11-0.353c0.078-0.237,0.208-0.421,0.318-0.634
							l0.414-0.529l-0.151,0.501c-0.368-1.268-0.754-2.548-1.161-3.801c-0.199-0.629-0.43-1.244-0.654-1.855
							c-0.226-0.609-0.475-1.207-0.766-1.76c-0.27-0.555-0.607-1.099-0.972-1.394c-0.175-0.15-0.332-0.205-0.453-0.206
							c-0.149,0.031-0.371,0.046-0.46,0.09c-0.102,0.042-0.21,0.059-0.328,0.133c-0.481,0.226-0.854,0.717-1.117,1.293
							c-0.261,0.578-0.432,1.23-0.53,1.903c-0.14-0.667-0.181-1.376-0.036-2.081c0.06-0.355,0.186-0.709,0.361-1.049
							c0.199-0.326,0.433-0.664,0.772-0.903c0.148-0.138,0.362-0.228,0.566-0.325c0.215-0.101,0.337-0.113,0.511-0.173
							c0.545-0.142,1.079,0.031,1.442,0.275c0.725,0.507,1.126,1.136,1.502,1.75c0.698,1.257,1.171,2.555,1.55,3.874
							c0.201,0.656,0.353,1.323,0.498,1.989c0.151,0.667,0.264,1.334,0.36,2.02l0.044,0.312l-0.195,0.189l-0.382,0.371
							c-0.092,0.131-0.23,0.257-0.3,0.393l-0.115,0.205l-0.06,0.207c-0.027,0.071-0.006,0.137-0.017,0.209
							c-0.018,0.074,0.021,0.141,0.027,0.216c0.07,0.298,0.311,0.587,0.593,0.841C82.144,103.401,82.479,103.628,82.84,103.812z"/>
					</g>
					<g>
						<path style="fill:#01334C;" d="M119.252,83.112c0,0,0.104,0.206,0.295,0.546c0.19,0.34,0.467,0.816,0.83,1.333
							c0.371,0.509,0.836,1.068,1.416,1.437c0.284,0.191,0.592,0.332,0.917,0.4c0.322,0.08,0.667,0.088,1.021,0.043l0.133-0.007
							l0.004,0c-0.125,0.027-0.032,0.007-0.058,0.012l0.01-0.003l0.02-0.005l0.04-0.01l0.08-0.02l0.321-0.078
							c0.255-0.046,0.301-0.126,0.462-0.172c0.137-0.049,0.268-0.171,0.412-0.242c0.118-0.11,0.244-0.211,0.355-0.331
							c0.206-0.251,0.408-0.524,0.538-0.834c0.142-0.3,0.245-0.618,0.329-0.918c0.159-0.604,0.241-1.149,0.289-1.534
							c0.049-0.386,0.067-0.616,0.067-0.616s0.107,0.204,0.23,0.588c0.118,0.383,0.261,0.949,0.268,1.663
							c0.004,0.356-0.01,0.753-0.122,1.169c-0.087,0.419-0.266,0.862-0.54,1.284c-0.289,0.418-0.669,0.794-1.163,1.063
							c-0.243,0.114-0.568,0.291-0.753,0.316l-0.32,0.085l-0.225,0.055l-0.198,0.019c-0.521,0.058-1.077,0.036-1.589-0.133
							c-0.259-0.077-0.507-0.172-0.725-0.315c-0.234-0.119-0.432-0.273-0.615-0.437c-0.376-0.315-0.642-0.691-0.868-1.044
							c-0.223-0.356-0.376-0.715-0.497-1.047c-0.24-0.665-0.319-1.24-0.353-1.639C119.233,83.341,119.252,83.112,119.252,83.112z"/>
					</g>
					<g>
						<path style="fill:#01334C;" d="M99.3,87.227c0,0,0.104,0.205,0.295,0.546c0.19,0.34,0.467,0.816,0.83,1.334
							c0.371,0.509,0.836,1.068,1.416,1.437c0.284,0.191,0.592,0.332,0.917,0.4c0.322,0.08,0.666,0.088,1.021,0.043l0.132-0.007
							l0.004,0c-0.125,0.026-0.032,0.007-0.059,0.012l0.01-0.002l0.02-0.005l0.04-0.01l0.08-0.02l0.321-0.078
							c0.255-0.046,0.302-0.126,0.462-0.172c0.137-0.049,0.268-0.171,0.412-0.242c0.118-0.11,0.244-0.211,0.355-0.331
							c0.206-0.251,0.408-0.524,0.538-0.834c0.142-0.3,0.245-0.618,0.329-0.918c0.159-0.604,0.241-1.149,0.289-1.534
							c0.049-0.386,0.067-0.616,0.067-0.616s0.107,0.204,0.23,0.588c0.118,0.383,0.261,0.949,0.268,1.663
							c0.004,0.356-0.01,0.753-0.122,1.169c-0.087,0.419-0.266,0.862-0.54,1.284c-0.289,0.418-0.669,0.794-1.164,1.063
							c-0.243,0.114-0.568,0.291-0.753,0.316l-0.32,0.085l-0.225,0.055l-0.198,0.019c-0.521,0.058-1.077,0.036-1.589-0.133
							c-0.259-0.077-0.507-0.172-0.725-0.315c-0.234-0.119-0.432-0.273-0.615-0.437c-0.376-0.315-0.642-0.691-0.868-1.044
							c-0.223-0.356-0.376-0.715-0.496-1.047c-0.24-0.665-0.319-1.24-0.353-1.639C99.281,87.456,99.3,87.227,99.3,87.227z"/>
					</g>
				</g>
				<g>
					<g>
						<path style="fill:#00D7CF;" d="M82.737,237.758c0,0-25.848-56.321-26.392-75.095c-0.544-18.774,19.318-25.304,19.318-25.304
							s6.258,19.318,31.017,16.325c24.76-2.993,19.318-23.127,19.318-23.127s19.046-3.265,30.473,9.795
							c3.448,3.941,8.947,15.212,10.87,27.892c0.382,2.522-10.957,3.913-10.957,3.913l7.044,45.393l6.375,20.479L82.737,237.758z"/>
						<path style="fill:#04BFB1;" d="M131.4,207.844c-19.614-6.372-35.799-17.59-49.967-32.465
							c-7.737-8.123-14.8-16.805-21.683-25.637c-2.132,3.446-3.556,7.711-3.405,12.921c0.544,18.774,26.392,75.095,26.392,75.095
							l87.066,0.272c0,0-0.219-9.726-0.954-23.086C156.128,213.84,143.513,211.779,131.4,207.844z"/>
					</g>
					<g>
						<g>
							<path style="fill:#FFAFA4;" d="M54.713,183.613c0,0-4.081,50.335,2.993,52.784c7.074,2.449,67.749-6.258,67.749-6.258
								s15.781,17.413,2.721-1.904c0,0,19.046,18.502,3.537-1.088c0,0,20.95,12.516,2.449-2.721c0,0,18.206,4.837-2.449-3.809
								c-11.7-4.898-52.24-7.89-52.24-7.89l3.537-28.841l-28.025-9.795L54.713,183.613z"/>
							<path style="fill:#EA8D83;" d="M58.82,192.801c4.663,1.501,10.299,2.065,15.211,1.968c2.622-0.052,5.202-0.361,7.748-0.851
								l1.23-10.032l-28.025-9.795l-0.272,9.523c0,0-0.229,2.833-0.485,7.184C55.699,191.524,57.179,192.273,58.82,192.801z"/>
						</g>
						<path style="fill:#00D7CF;" d="M85.186,189.055c-11.972,1.36-35.371-5.442-35.371-5.442s0.272-42.989,25.848-46.254
							C75.663,137.359,97.158,187.695,85.186,189.055z"/>
					</g>
				</g>
			</g>
			<g>
				<path style="fill:#002838;" d="M185.927,235.686c0,1.294-1.049,2.344-2.344,2.344H94.514c-1.295,0-2.344-1.049-2.344-2.344l0,0
					c0-1.295,1.049-2.344,2.344-2.344h89.069C184.878,233.342,185.927,234.392,185.927,235.686L185.927,235.686z"/>
				<g>
					<path style="fill:#01334C;" d="M226.295,234.124c0,2.158-1.749,3.907-3.906,3.907h-77.349c-2.157,0-3.906-1.749-3.906-3.907
						v-52.348c0-2.158,1.749-3.907,3.906-3.907h77.349c2.158,0,3.906,1.749,3.906,3.907V234.124z"/>
					<path style="fill:#002838;" d="M146.834,234.124v-52.348c0-2.158,1.749-3.907,3.907-3.907h-5.702
						c-2.157,0-3.906,1.749-3.906,3.907v52.348c0,2.158,1.749,3.907,3.906,3.907h5.702
						C148.583,238.03,146.834,236.281,146.834,234.124z"/>
				</g>
			</g>
		</g>
	</g>
</g>
</svg>
